<mxfile host="app.diagrams.net" modified="2021-02-08T15:56:42.706Z" agent="5.0 (Windows NT 10.0; Win64; x64) AppleWebKit/537.36 (KHTML, like Gecko) Chrome/88.0.4324.146 Safari/537.36" etag="dlY_V3QlXGOSWxnurrbF" version="14.3.0" type="github">
  <diagram id="ZJ7EyQCRlLd_sh-s9nbI" name="Page-1">
    <mxGraphModel dx="868" dy="482" grid="1" gridSize="10" guides="1" tooltips="1" connect="1" arrows="1" fold="1" page="1" pageScale="1" pageWidth="850" pageHeight="1100" math="0" shadow="0">
      <root>
        <mxCell id="0" />
        <mxCell id="1" parent="0" />
        <mxCell id="w4X3sGKRxSUrehNFuAnJ-9" value="MLM" style="text;html=1;align=center;verticalAlign=middle;resizable=0;points=[];autosize=1;fontSize=20;fillColor=#ffe6cc;strokeColor=#d79b00;spacingTop=0;spacingLeft=0;" vertex="1" parent="1">
          <mxGeometry x="190" y="190" width="60" height="30" as="geometry" />
        </mxCell>
        <mxCell id="w4X3sGKRxSUrehNFuAnJ-1" value="Input" style="text;html=1;align=center;verticalAlign=middle;resizable=0;points=[];autosize=1;fontSize=20;fillColor=#ffe6cc;strokeColor=#d79b00;" vertex="1" parent="1">
          <mxGeometry x="190" y="120" width="60" height="30" as="geometry" />
        </mxCell>
        <mxCell id="w4X3sGKRxSUrehNFuAnJ-3" value="My" style="whiteSpace=wrap;html=1;fontSize=20;" vertex="1" parent="1">
          <mxGeometry x="350" y="110" width="60" height="50" as="geometry" />
        </mxCell>
        <mxCell id="w4X3sGKRxSUrehNFuAnJ-4" value="friend" style="whiteSpace=wrap;html=1;fontSize=20;" vertex="1" parent="1">
          <mxGeometry x="420" y="110" width="80" height="50" as="geometry" />
        </mxCell>
        <mxCell id="w4X3sGKRxSUrehNFuAnJ-5" value="likes" style="whiteSpace=wrap;html=1;fontSize=20;" vertex="1" parent="1">
          <mxGeometry x="510" y="110" width="80" height="50" as="geometry" />
        </mxCell>
        <mxCell id="w4X3sGKRxSUrehNFuAnJ-6" value="the" style="whiteSpace=wrap;html=1;fontSize=20;" vertex="1" parent="1">
          <mxGeometry x="600" y="110" width="60" height="50" as="geometry" />
        </mxCell>
        <mxCell id="w4X3sGKRxSUrehNFuAnJ-7" value="movie" style="whiteSpace=wrap;html=1;fontSize=20;" vertex="1" parent="1">
          <mxGeometry x="670" y="110" width="90" height="50" as="geometry" />
        </mxCell>
        <mxCell id="w4X3sGKRxSUrehNFuAnJ-8" value="" style="shape=flexArrow;endArrow=classic;html=1;fontSize=20;" edge="1" parent="1">
          <mxGeometry width="50" height="50" relative="1" as="geometry">
            <mxPoint x="270" y="134.5" as="sourcePoint" />
            <mxPoint x="330" y="134.5" as="targetPoint" />
          </mxGeometry>
        </mxCell>
        <mxCell id="w4X3sGKRxSUrehNFuAnJ-10" value="My" style="whiteSpace=wrap;html=1;fontSize=20;" vertex="1" parent="1">
          <mxGeometry x="350" y="180" width="60" height="50" as="geometry" />
        </mxCell>
        <mxCell id="w4X3sGKRxSUrehNFuAnJ-11" value="friend" style="whiteSpace=wrap;html=1;fontSize=20;" vertex="1" parent="1">
          <mxGeometry x="420" y="180" width="80" height="50" as="geometry" />
        </mxCell>
        <mxCell id="w4X3sGKRxSUrehNFuAnJ-12" value="[MASK]" style="whiteSpace=wrap;html=1;fontSize=20;fillColor=#dae8fc;strokeColor=#6c8ebf;" vertex="1" parent="1">
          <mxGeometry x="510" y="180" width="80" height="50" as="geometry" />
        </mxCell>
        <mxCell id="w4X3sGKRxSUrehNFuAnJ-13" value="the" style="whiteSpace=wrap;html=1;fontSize=20;" vertex="1" parent="1">
          <mxGeometry x="600" y="180" width="60" height="50" as="geometry" />
        </mxCell>
        <mxCell id="w4X3sGKRxSUrehNFuAnJ-14" value="movie" style="whiteSpace=wrap;html=1;fontSize=20;" vertex="1" parent="1">
          <mxGeometry x="670" y="180" width="90" height="50" as="geometry" />
        </mxCell>
        <mxCell id="w4X3sGKRxSUrehNFuAnJ-15" value="" style="shape=flexArrow;endArrow=classic;html=1;fontSize=20;" edge="1" parent="1">
          <mxGeometry width="50" height="50" relative="1" as="geometry">
            <mxPoint x="270" y="204.5" as="sourcePoint" />
            <mxPoint x="330" y="204.5" as="targetPoint" />
          </mxGeometry>
        </mxCell>
        <mxCell id="w4X3sGKRxSUrehNFuAnJ-16" value="The Bidectional Flow" style="text;html=1;align=center;verticalAlign=middle;resizable=0;points=[];autosize=1;fontSize=20;fillColor=#ffe6cc;strokeColor=#d79b00;" vertex="1" parent="1">
          <mxGeometry x="50" y="270" width="200" height="30" as="geometry" />
        </mxCell>
        <mxCell id="w4X3sGKRxSUrehNFuAnJ-28" style="edgeStyle=orthogonalEdgeStyle;rounded=0;orthogonalLoop=1;jettySize=auto;html=1;fontSize=20;" edge="1" parent="1" source="w4X3sGKRxSUrehNFuAnJ-17">
          <mxGeometry relative="1" as="geometry">
            <mxPoint x="540" y="312" as="targetPoint" />
            <Array as="points">
              <mxPoint x="380" y="380" />
              <mxPoint x="540" y="380" />
              <mxPoint x="540" y="312" />
            </Array>
          </mxGeometry>
        </mxCell>
        <mxCell id="w4X3sGKRxSUrehNFuAnJ-17" value="My" style="whiteSpace=wrap;html=1;fontSize=20;" vertex="1" parent="1">
          <mxGeometry x="350" y="260" width="60" height="50" as="geometry" />
        </mxCell>
        <mxCell id="w4X3sGKRxSUrehNFuAnJ-27" style="edgeStyle=orthogonalEdgeStyle;rounded=0;orthogonalLoop=1;jettySize=auto;html=1;entryX=0.15;entryY=1;entryDx=0;entryDy=0;fontSize=20;entryPerimeter=0;" edge="1" parent="1" source="w4X3sGKRxSUrehNFuAnJ-18" target="w4X3sGKRxSUrehNFuAnJ-23">
          <mxGeometry relative="1" as="geometry">
            <Array as="points">
              <mxPoint x="450" y="330" />
              <mxPoint x="522" y="330" />
            </Array>
          </mxGeometry>
        </mxCell>
        <mxCell id="w4X3sGKRxSUrehNFuAnJ-18" value="friend" style="whiteSpace=wrap;html=1;fontSize=20;" vertex="1" parent="1">
          <mxGeometry x="420" y="260" width="80" height="50" as="geometry" />
        </mxCell>
        <mxCell id="w4X3sGKRxSUrehNFuAnJ-29" style="edgeStyle=orthogonalEdgeStyle;rounded=0;orthogonalLoop=1;jettySize=auto;html=1;exitX=0.5;exitY=1;exitDx=0;exitDy=0;entryX=0.9;entryY=1;entryDx=0;entryDy=0;entryPerimeter=0;fontSize=20;" edge="1" parent="1" source="w4X3sGKRxSUrehNFuAnJ-20" target="w4X3sGKRxSUrehNFuAnJ-23">
          <mxGeometry relative="1" as="geometry" />
        </mxCell>
        <mxCell id="w4X3sGKRxSUrehNFuAnJ-20" value="the" style="whiteSpace=wrap;html=1;fontSize=20;" vertex="1" parent="1">
          <mxGeometry x="600" y="260" width="60" height="50" as="geometry" />
        </mxCell>
        <mxCell id="w4X3sGKRxSUrehNFuAnJ-30" style="edgeStyle=orthogonalEdgeStyle;rounded=0;orthogonalLoop=1;jettySize=auto;html=1;fontSize=20;" edge="1" parent="1" source="w4X3sGKRxSUrehNFuAnJ-21">
          <mxGeometry relative="1" as="geometry">
            <mxPoint x="570" y="312" as="targetPoint" />
            <Array as="points">
              <mxPoint x="715" y="380" />
              <mxPoint x="570" y="380" />
              <mxPoint x="570" y="312" />
            </Array>
          </mxGeometry>
        </mxCell>
        <mxCell id="w4X3sGKRxSUrehNFuAnJ-21" value="movie" style="whiteSpace=wrap;html=1;fontSize=20;" vertex="1" parent="1">
          <mxGeometry x="670" y="260" width="90" height="50" as="geometry" />
        </mxCell>
        <mxCell id="w4X3sGKRxSUrehNFuAnJ-22" value="" style="shape=flexArrow;endArrow=classic;html=1;fontSize=20;" edge="1" parent="1">
          <mxGeometry width="50" height="50" relative="1" as="geometry">
            <mxPoint x="270" y="284.5" as="sourcePoint" />
            <mxPoint x="330" y="284.5" as="targetPoint" />
          </mxGeometry>
        </mxCell>
        <mxCell id="w4X3sGKRxSUrehNFuAnJ-23" value="[MASK]" style="whiteSpace=wrap;html=1;fontSize=20;fillColor=#dae8fc;strokeColor=#6c8ebf;" vertex="1" parent="1">
          <mxGeometry x="510" y="260" width="80" height="50" as="geometry" />
        </mxCell>
      </root>
    </mxGraphModel>
  </diagram>
</mxfile>
